# xmcd
# Copyright (C) 1995-1998 Ti Kan
#
# Track frame offsets:
#       150
#       22834
#       47005
#       67362
#       91376
#       110466
#       131974
#       154731
#       178004
#       199469
#       220453
#       240344
#       254411
#       270596
#       289881
#       316006
#       340240
#
# Disc length: 4781 seconds
#
# Revision: 2
# Processed by: cddbd v1.4PL0 Copyright (c) Steve Scherf et al.
# Submitted via: CD-Transfer v1.0
#
DISCID=0412ab11
DTITLE=Nightwish - Nightwish 2000
DYEAR=1900
DGENRE=
TTITLE0=Over The Hills And Far Away
TTITLE1=10th Man Down
TTITLE2=Away
TTITLE3=Astral Romance
TTITLE4=The Kingsalyer
TTITLE5=She Is My Sin
TTITLE6=Sacrament Of Wilderues
TTITLE7=Walking Hi The Aur
TTITLE8=Wishmaster
TTITLE9=Deeep Silent Complete
TTITLE10=Wishmaster
TTITLE11=Sleepwalker
TTITLE12=Pasion And The Opera
TTITLE13=Nightquest
TTITLE14=A Return To The Sea
TTITLE15=Once Upon A Trombadour
TTITLE16=Sleeping Sun
EXTD=
EXTT0=
EXTT1=
EXTT2=
EXTT3=
EXTT4=
EXTT5=
EXTT6=
EXTT7=
EXTT8=
EXTT9=
EXTT10=
EXTT11=
EXTT12=
EXTT13=
EXTT14=
EXTT15=
EXTT16=
PLAYORDER=
